<svg xmlns="http://www.w3.org/2000/svg" viewBox="0 0 64 64"><g id="_21-Success" data-name="21-Success"><path d="M59,26c0,4.97-1.34,9-3,9-1.44,0-2.64-3.02-2.93-7.07C53.02,27.31,53,26.66,53,26s.02-1.31.07-1.93C53.36,20.02,54.56,17,56,17,57.66,17,59,21.03,59,26Z" style="fill:#5c6979"/><path d="M21,16.46V35.55L6,38c-2.76,0-5-5.37-5-12S3.24,14,6,14v.03Z" style="fill:#edf4fa"/><path d="M35,16.76l22.48-2.7c-2.25.56-4.06,4.7-4.41,10.01-.05.62-.07,1.27-.07,1.93s.02,1.31.07,1.93c.35,5.31,2.16,9.45,4.41,10.01L35,35.24Z" style="fill:#edf4fa"/><polygon points="35 16.76 35 35.24 28 34.4 21 35.55 21 16.46 28 17.6 35 16.76" style="fill:#ffab02"/><path d="M56,17A1.4,1.4,0,0,0,55,17.517C56.164,18.748,57,22.077,57,26S56.164,33.252,55,34.483A1.4,1.4,0,0,0,56,35c1.66,0,3-4.03,3-9S57.66,17,56,17Z" style="fill:#393d48"/><path d="M58,14c2.76,0,5,5.37,5,12s-2.24,12-5,12l-.51-.06h-.01c-2.25-.56-4.06-4.7-4.41-10.01C53.36,31.98,54.56,35,56,35c1.66,0,3-4.03,3-9s-1.34-9-3-9c-1.44,0-2.64,3.02-2.93,7.07.35-5.31,2.16-9.45,4.41-10.01h.01Z" style="fill:#a8b7d4"/><path d="M56,17v9H53c0-.66.02-1.31.07-1.93C53.36,20.02,54.56,17,56,17Z" style="fill:#8394b2"/><path d="M7.663,29.26a6,6,0,0,1-6.6-5.119C1.027,24.749,1,25.366,1,26c0,6.63,2.24,12,5,12l15-2.45V27.778Z" style="fill:#d6e0eb"/><path d="M53.07,27.93c-.006-.072,0-.15-.008-.223a5.972,5.972,0,0,1-4.725,1.553L35,27.778V35.24l22.48,2.7C55.23,37.38,53.42,33.24,53.07,27.93Z" style="fill:#d6e0eb"/><polygon points="28 27 21 27.778 21 35.55 28 34.4 35 35.24 35 27.778 28 27" style="fill:#ff9102"/><path d="M56.29,34.956A1.025,1.025,0,0,1,56,35c-1.44,0-2.64-3.02-2.93-7.07.35,5.31,2.16,9.45,4.41,10.01h.01L58,38c1.17,0,2.245-.973,3.1-2.591a4.029,4.029,0,0,1-4.807-.453Z" style="fill:#8394b2"/><path d="M61.1,16.59C60.245,14.973,59.17,14,58,14l-.51.06h-.01c-2.25.56-4.06,4.7-4.41,10.01C53.36,20.02,54.56,17,56,17a1.025,1.025,0,0,1,.29.044A4.032,4.032,0,0,1,61.1,16.59Z" style="fill:#8394b2"/><path d="M27,35a8,8,0,1,1,8,8A8,8,0,0,1,27,35Z" style="fill:#593a75"/><polygon points="40 32.819 37.5 35.38 38.09 39 35 37.29 31.91 39 32.5 35.38 30 32.819 33.45 32.289 35 28.999 36.55 32.289 40 32.819" style="fill:#ffcb02"/><path d="M34.92,45.2,30,58l-3-5-6,2,4.91-12.76c.84.43,2.09.49,2.84,1.01.95.66,1.4,2.33,2.54,2.68C32.37,46.27,33.72,45.24,34.92,45.2Z" style="fill:#ffc400"/><path d="M44.09,42.24,49,55l-6-2-3,5L35.08,45.2c1.2.04,2.55,1.07,3.63.73,1.14-.35,1.59-2.02,2.54-2.68C41.99,42.73,43.24,42.67,44.09,42.24Z" style="fill:#ffcb02"/><path d="M25.29,28.24c.7-.92,2.5-.82,3.46-1.49s1.4-2.331,2.54-2.681c1.1-.35,2.49.74,3.71.74s2.61-1.09,3.71-.74c1.14.35,1.59,2.02,2.54,2.681.97.67,2.76.57,3.46,1.49s.04,2.52.41,3.61C45.48,32.9,47,33.83,47,35s-1.52,2.1-1.88,3.151c-.37,1.09.28,2.7-.41,3.61a1.646,1.646,0,0,1-.62.48c-.85.43-2.1.49-2.84,1.01-.95.66-1.4,2.33-2.54,2.68-1.08.34-2.43-.69-3.63-.73L35,45l-.08.2c-1.2.04-2.55,1.07-3.63.73-1.14-.35-1.59-2.02-2.54-2.68-.75-.52-2-.58-2.84-1.01a1.646,1.646,0,0,1-.62-.48c-.69-.91-.04-2.52-.41-3.61C24.52,37.1,23,36.17,23,35s1.52-2.1,1.88-3.15C25.25,30.76,24.6,29.15,25.29,28.24ZM35,27a8,8,0,1,0,8,8A8,8,0,0,0,35,27Z" style="fill:#9c59a9"/><path d="M31.29,45.93c-1.14-.35-1.59-2.02-2.54-2.68-.75-.52-2-.58-2.84-1.01l-.636,1.651a8.722,8.722,0,0,1,2.434.86c1.109.78,1.634,2.754,2.964,3.168,1.04.331,2.293-.432,3.487-.739l.761-1.98C33.72,45.24,32.37,46.27,31.29,45.93Z" style="fill:#ffab02"/><path d="M39.328,47.919c1.33-.414,1.855-2.388,2.964-3.168a8.581,8.581,0,0,1,2.433-.861l-.635-1.65c-.85.43-2.1.49-2.84,1.01-.95.66-1.4,2.33-2.54,2.68-1.08.34-2.43-.69-3.63-.73l.761,1.98C37.035,47.487,38.288,48.25,39.328,47.919Z" style="fill:#ffab02"/><path d="M43.092,29.469c-.584-.753-2.075-.671-2.884-1.219-.791-.54-1.166-1.907-2.116-2.193-.917-.287-2.075.605-3.092.605s-2.175-.892-3.092-.605c-.95.286-1.325,1.653-2.116,2.193s-2.3.466-2.884,1.219-.033,2.062-.341,2.954C26.267,33.282,25,34.043,25,35s1.267,1.719,1.567,2.578c.308.892-.234,2.209.341,2.954a1.383,1.383,0,0,0,.517.392,22.166,22.166,0,0,1,2.367.827c.791.54,1.166,1.906,2.116,2.193.9.278,2.025-.565,3.025-.6L35,43.183l.067.163c1,.033,2.125.876,3.025.6.95-.287,1.325-1.653,2.116-2.193a20.993,20.993,0,0,1,2.367-.827,1.383,1.383,0,0,0,.517-.392c.575-.745.033-2.062.341-2.954C43.733,36.719,45,35.958,45,35s-1.267-1.718-1.567-2.577C43.125,31.531,43.667,30.213,43.092,29.469ZM35,43a8,8,0,1,1,8-8A8,8,0,0,1,35,43Z" style="fill:#774e9d"/><path d="M29,33a7.953,7.953,0,0,1,1.435-4.566,8,8,0,1,0,11.13,11.131A7.995,7.995,0,0,1,29,33Z" style="fill:#422b57"/><path d="M58,13c-.04,0-.575.055-.65.071L28.021,16.59,6.4,13.081A1,1,0,0,0,6,13c-3.42,0-6,5.589-6,13S2.58,39,6,39a.983.983,0,0,0,.162-.013L22.38,36.334a7.385,7.385,0,0,0,.857,1.163,3.939,3.939,0,0,1,.693.975,3.92,3.92,0,0,1,.049,1.232A3.824,3.824,0,0,0,24.5,42.36a2.216,2.216,0,0,0,.214.209L20.066,54.641a1,1,0,0,0,1.25,1.307L26.555,54.2l2.588,4.313A1,1,0,0,0,30,59a.825.825,0,0,0,.086,0,1,1,0,0,0,.848-.637L35,47.787l4.066,10.572a1,1,0,0,0,.848.637A.825.825,0,0,0,40,59a1,1,0,0,0,.857-.485L43.445,54.2l5.239,1.746a.989.989,0,0,0,1.039-.258,1,1,0,0,0,.211-1.049L45.291,42.57a2.209,2.209,0,0,0,.213-.209,3.823,3.823,0,0,0,.517-2.657,3.92,3.92,0,0,1,.049-1.232,3.955,3.955,0,0,1,.692-.974A4,4,0,0,0,48,35a4,4,0,0,0-1.237-2.5,3.939,3.939,0,0,1-.693-.975,3.92,3.92,0,0,1-.049-1.232,3.824,3.824,0,0,0-.516-2.656,4.145,4.145,0,0,0-2.452-1.275,4.383,4.383,0,0,1-1.226-.431,4.037,4.037,0,0,1-.782-.96,4.049,4.049,0,0,0-2.039-1.862,4.191,4.191,0,0,0-2.694.347,4.494,4.494,0,0,1-1.312.35,4.494,4.494,0,0,1-1.312-.35A4.2,4.2,0,0,0,31,23.112a4.052,4.052,0,0,0-2.04,1.862,4.037,4.037,0,0,1-.782.96,4.383,4.383,0,0,1-1.226.431A4.144,4.144,0,0,0,24.5,27.639a3.823,3.823,0,0,0-.517,2.657,3.92,3.92,0,0,1-.049,1.232,3.955,3.955,0,0,1-.692.974,5.077,5.077,0,0,0-1.144,1.851L22,34.368V17.639l5.84.948a.967.967,0,0,0,.279.006L34,17.887V22h2V17.647l18.425-2.211a18.781,18.781,0,0,0-2.365,8.737l0,.028c-.013.235-.026.47-.034.708C52.009,25.274,52,25.638,52,26s.009.726.024,1.091c.008.238.021.473.034.708l0,.028a18.781,18.781,0,0,0,2.365,8.737l-5.306-.637-.238,1.986,8.469,1.016c.075.016.152.017.228.028l.3.036v-.005c.04,0,.079.012.119.012,3.42,0,6-5.589,6-13S61.42,13,58,13ZM29.8,55.728l-1.946-3.243a1,1,0,0,0-1.173-.433l-3.99,1.329,3.8-9.87c.153.042.307.086.456.124a4.383,4.383,0,0,1,1.226.431,4.037,4.037,0,0,1,.782.96,4.049,4.049,0,0,0,2.039,1.862,3.619,3.619,0,0,0,2.286-.2Zm17.5-2.347-3.99-1.329a1,1,0,0,0-1.173.433L40.2,55.728l-3.476-9.041A4.717,4.717,0,0,0,38.245,47a2.55,2.55,0,0,0,.76-.112,4.052,4.052,0,0,0,2.04-1.862,4.037,4.037,0,0,1,.782-.96,4.383,4.383,0,0,1,1.226-.431c.149-.038.3-.082.456-.124ZM24.762,33.8a5.164,5.164,0,0,0,1.061-1.627,5.294,5.294,0,0,0,.153-1.981,2.683,2.683,0,0,1,.112-1.341,3.03,3.03,0,0,1,1.356-.547,5.616,5.616,0,0,0,1.873-.728,5.392,5.392,0,0,0,1.3-1.481c.323-.478.656-.972.975-1.071A3.033,3.033,0,0,1,33,25.337a5.892,5.892,0,0,0,2,.472,5.892,5.892,0,0,0,2-.472,3.064,3.064,0,0,1,1.414-.315c.318.1.652.593.974,1.071a5.392,5.392,0,0,0,1.3,1.481,5.616,5.616,0,0,0,1.873.728,3.027,3.027,0,0,1,1.357.548,2.691,2.691,0,0,1,.111,1.34,5.314,5.314,0,0,0,.152,1.981A5.163,5.163,0,0,0,45.239,33.8c.357.419.761.9.761,1.2s-.405.782-.762,1.2a5.164,5.164,0,0,0-1.061,1.627,5.294,5.294,0,0,0-.153,1.981,2.683,2.683,0,0,1-.112,1.341,3.03,3.03,0,0,1-1.356.547,5.616,5.616,0,0,0-1.873.728,5.392,5.392,0,0,0-1.3,1.481c-.323.478-.656.972-.975,1.071A3,3,0,0,1,37,44.663a5.892,5.892,0,0,0-2-.472,5.892,5.892,0,0,0-2,.472,3.029,3.029,0,0,1-1.414.315c-.318-.1-.652-.593-.974-1.071a5.392,5.392,0,0,0-1.3-1.481,5.616,5.616,0,0,0-1.873-.728,3.027,3.027,0,0,1-1.357-.548,2.691,2.691,0,0,1-.111-1.34,5.314,5.314,0,0,0-.152-1.981A5.163,5.163,0,0,0,24.761,36.2C24.4,35.782,24,35.306,24,35S24.405,34.218,24.762,33.8ZM20,34.7,5.931,37C4.061,36.886,2,32.22,2,26c0-6.1,1.98-10.7,3.82-10.986l.02,0L20,17.315ZM56,34c-.446,0-1.623-2.075-1.927-6.054-.009-.127-.016-.255-.024-.384-.01-.169-.02-.337-.027-.513V27H56a1,1,0,0,0,1-1V19.492A18.479,18.479,0,0,1,58,26C58,31.249,56.514,34,56,34Zm-1.951-9.562c.008-.129.015-.257.024-.384A16.281,16.281,0,0,1,55,19.492V25h-.979v-.049C54.029,24.775,54.039,24.607,54.049,24.438ZM58.027,37l-.255-.031a2.443,2.443,0,0,1-1.358-1.014C58.872,35.454,60,30.566,60,26s-1.128-9.454-3.586-9.951a2.447,2.447,0,0,1,1.358-1.014L58.027,15C59.908,15.049,62,19.734,62,26S59.908,36.951,58.027,37Z"/><path d="M35,44a9,9,0,1,0-9-9A9.01,9.01,0,0,0,35,44Zm0-16a7,7,0,1,1-7,7A7.008,7.008,0,0,1,35,28Z"/><path d="M34.1,28.575l-1.319,2.809-2.927.447a1,1,0,0,0-.565,1.687l2.148,2.2-.509,3.12a1,1,0,0,0,1.471,1.036L35,38.435l2.606,1.44a1,1,0,0,0,1.471-1.036l-.509-3.12,2.148-2.2a1,1,0,0,0-.565-1.687l-2.927-.447-1.319-2.809a1,1,0,0,0-1.81,0ZM35,31.354l.64,1.363a1,1,0,0,0,.754.563l1.531.235-1.141,1.169a1,1,0,0,0-.271.859l.259,1.586-1.288-.712a1,1,0,0,0-.968,0l-1.288.712.259-1.586a1,1,0,0,0-.271-.859l-1.141-1.169,1.531-.235a1,1,0,0,0,.754-.563Z"/></g></svg>