<?xml version="1.0" encoding="utf-8"?>
<!-- Generator: Adobe Illustrator 18.0.0, SVG Export Plug-In . SVG Version: 6.00 Build 0)  -->
<!DOCTYPE svg PUBLIC "-//W3C//DTD SVG 1.1//EN" "http://www.w3.org/Graphics/SVG/1.1/DTD/svg11.dtd">
<svg version="1.1" id="ecommerce_1_" xmlns="http://www.w3.org/2000/svg" xmlns:xlink="http://www.w3.org/1999/xlink" x="0px"
	 y="0px" viewBox="0 0 115 115" style="enable-background:new 0 0 115 115;" xml:space="preserve">
<style type="text/css">
	.st0{fill:#FFEEAD;}
	.st1{fill:#C9B77D;}
	.st2{fill:#99734A;}
	.st3{fill:#FF6F69;}
	.st4{fill:#96CEB4;}
	.st5{fill:none;}
	.st6{fill:#AA9865;}
	.st7{fill:#71A58A;}
	.st8{fill:#FFCC5C;}
	.st9{fill:#825E3B;}
	.st10{fill:#639376;}
	.st11{fill:#E05858;}
	.st12{fill:#C1821E;}
	.st13{fill:#D6A041;}
	.st14{fill:#B28559;}
	.st15{fill:#BF4343;}
	.st16{fill:#D3C089;}
	.st17{fill:#7C5C3C;}
	.st18{fill:#FDCC5C;}
	.st19{fill:#FFFFFF;}
</style>
<g>
	<g>
		<g>
			<g>
				<g>
					<g>
						<path class="st13" d="M80.97,72.115l-0.18,3.808c-0.038,0.263-0.069,0.527-0.081,0.795
							c-0.306,6.478,7.075,12.089,16.486,12.534c9.168,0.433,16.877-4.198,17.552-10.426l0.011,0l0.014-0.308
							c0.005-0.064,0.013-0.127,0.016-0.191c0.003-0.064,0-0.128,0.002-0.192L115,73.722L80.97,72.115z"/>
					</g>
				</g>
				<g>
					<g>
						
							<ellipse transform="matrix(0.0472 -0.9989 0.9989 0.0472 20.158 167.6385)" class="st8" cx="97.951" cy="73.253" rx="11.742" ry="17.059"/>
					</g>
				</g>
				<g>
					<g>
						
							<ellipse transform="matrix(0.0472 -0.9989 0.9989 0.0472 20.158 167.6386)" class="st19" cx="97.951" cy="73.253" rx="9.14" ry="13.278"/>
					</g>
				</g>
				<g>
					<g>
						
							<ellipse transform="matrix(0.0472 -0.9989 0.9989 0.0472 20.1578 167.6384)" class="st0" cx="97.951" cy="73.253" rx="8.461" ry="12.293"/>
					</g>
				</g>
			</g>
		</g>
		<g>
			<g>
				<g>
					<g>
						<path class="st13" d="M38.316,75.231v-4.418H4.249v3.812c-0.026,0.264-0.044,0.53-0.044,0.799
							c0,6.485,7.638,11.742,17.059,11.742c9.178,0,16.66-4.989,17.041-11.242h0.011v-0.308c0.002-0.064,0.007-0.127,0.007-0.192
							C38.324,75.358,38.318,75.295,38.316,75.231z"/>
					</g>
				</g>
				<g>
					<g>
						<ellipse class="st8" cx="21.264" cy="71.148" rx="17.059" ry="11.742"/>
					</g>
				</g>
				<g>
					<g>
						<ellipse class="st19" cx="21.264" cy="71.148" rx="13.278" ry="9.14"/>
					</g>
				</g>
				<g>
					<g>
						<ellipse class="st0" cx="21.264" cy="71.148" rx="12.293" ry="8.462"/>
					</g>
				</g>
			</g>
		</g>
		<g>
			<g>
				<g>
					<g>
						<path class="st13" d="M34.628,66.551v-4.419H0.561v3.812c-0.026,0.264-0.044,0.53-0.044,0.799
							c0,6.485,7.638,11.742,17.059,11.742c9.178,0,16.66-4.989,17.041-11.242h0.011v-0.308c0.001-0.064,0.007-0.127,0.007-0.192
							C34.635,66.679,34.63,66.615,34.628,66.551z"/>
					</g>
				</g>
				<g>
					<g>
						<ellipse class="st8" cx="17.576" cy="62.468" rx="17.059" ry="11.742"/>
					</g>
				</g>
				<g>
					<g>
						<ellipse class="st19" cx="17.576" cy="62.468" rx="13.278" ry="9.14"/>
					</g>
				</g>
				<g>
					<g>
						<ellipse class="st0" cx="17.576" cy="62.468" rx="12.293" ry="8.461"/>
					</g>
				</g>
			</g>
		</g>
		<g>
			<g>
				<g>
					<g>
						<path class="st13" d="M35.589,58.915v-4.419H1.521v3.812c-0.026,0.264-0.044,0.53-0.044,0.799
							c0,6.485,7.638,11.742,17.059,11.742c9.178,0,16.66-4.99,17.041-11.242h0.011v-0.308c0.002-0.064,0.007-0.128,0.007-0.192
							S35.59,58.979,35.589,58.915z"/>
					</g>
				</g>
				<g>
					<g>
						<ellipse class="st8" cx="18.537" cy="54.832" rx="17.059" ry="11.742"/>
					</g>
				</g>
				<g>
					<g>
						<ellipse class="st19" cx="18.537" cy="54.832" rx="13.278" ry="9.14"/>
					</g>
				</g>
				<g>
					<g>
						<ellipse class="st0" cx="18.537" cy="54.832" rx="12.293" ry="8.461"/>
					</g>
				</g>
			</g>
		</g>
		<g>
			<g>
				<g>
					<g>
						<path class="st13" d="M34.111,49.192v-4.419H0.044v3.812C0.018,48.849,0,49.115,0,49.384c0,6.485,7.638,11.742,17.059,11.742
							c9.178,0,16.66-4.989,17.041-11.242h0.011v-0.308c0.001-0.064,0.007-0.127,0.007-0.192
							C34.118,49.319,34.113,49.256,34.111,49.192z"/>
					</g>
				</g>
				<g>
					<g>
						<ellipse class="st8" cx="17.059" cy="45.109" rx="17.059" ry="11.742"/>
					</g>
				</g>
				<g>
					<g>
						<ellipse class="st19" cx="17.059" cy="45.109" rx="13.278" ry="9.14"/>
					</g>
				</g>
				<g>
					<g>
						<ellipse class="st0" cx="17.059" cy="45.109" rx="12.293" ry="8.462"/>
					</g>
				</g>
			</g>
		</g>
		<g>
			<g>
				<g>
					<g>
						<path class="st13" d="M76.554,76.059v-4.419H42.486v3.812c-0.026,0.264-0.044,0.53-0.044,0.798
							c0,6.485,7.638,11.742,17.059,11.742c9.178,0,16.66-4.989,17.041-11.242h0.011v-0.308c0.001-0.064,0.007-0.127,0.007-0.192
							S76.555,76.123,76.554,76.059z"/>
					</g>
				</g>
				<g>
					<g>
						<ellipse class="st8" cx="59.502" cy="71.976" rx="17.059" ry="11.742"/>
					</g>
				</g>
				<g>
					<g>
						<ellipse class="st19" cx="59.502" cy="71.976" rx="13.278" ry="9.14"/>
					</g>
				</g>
				<g>
					<g>
						<ellipse class="st0" cx="59.502" cy="71.976" rx="12.293" ry="8.462"/>
					</g>
				</g>
			</g>
		</g>
		<g>
			<g>
				<g>
					<g>
						<path class="st13" d="M77.391,69.652v-4.419H43.323v3.812c-0.026,0.264-0.044,0.53-0.044,0.798
							c0,6.485,7.638,11.742,17.059,11.742c9.178,0,16.66-4.989,17.041-11.242h0.011v-0.308c0.001-0.064,0.007-0.128,0.007-0.192
							C77.398,69.78,77.392,69.716,77.391,69.652z"/>
					</g>
				</g>
				<g>
					<g>
						<ellipse class="st8" cx="60.339" cy="65.569" rx="17.059" ry="11.742"/>
					</g>
				</g>
				<g>
					<g>
						<ellipse class="st19" cx="60.339" cy="65.569" rx="13.278" ry="9.14"/>
					</g>
				</g>
				<g>
					<g>
						<ellipse class="st0" cx="60.339" cy="65.569" rx="12.293" ry="8.462"/>
					</g>
				</g>
			</g>
		</g>
		<g>
			<g>
				<g>
					<g>
						<path class="st13" d="M76.14,59.413v-4.419H42.073v3.812c-0.026,0.264-0.044,0.53-0.044,0.798
							c0,6.485,7.638,11.742,17.059,11.742c9.178,0,16.66-4.989,17.041-11.242h0.011v-0.308c0.002-0.064,0.007-0.127,0.007-0.192
							C76.147,59.54,76.142,59.477,76.14,59.413z"/>
					</g>
				</g>
				<g>
					<g>
						<ellipse class="st8" cx="59.088" cy="55.33" rx="17.059" ry="11.742"/>
					</g>
				</g>
				<g>
					<g>
						<ellipse class="st19" cx="59.088" cy="55.33" rx="13.278" ry="9.14"/>
					</g>
				</g>
				<g>
					<g>
						<ellipse class="st0" cx="59.088" cy="55.33" rx="12.293" ry="8.462"/>
					</g>
				</g>
			</g>
		</g>
		<g>
			<g>
				<g>
					<g>
						<path class="st13" d="M78.166,65.386l-0.18,3.808c-0.038,0.263-0.069,0.527-0.081,0.795
							c-0.306,6.478,7.075,12.089,16.486,12.534c9.168,0.433,16.877-4.198,17.552-10.426l0.011,0l0.015-0.308
							c0.005-0.064,0.013-0.127,0.016-0.191c0.003-0.064,0-0.128,0.002-0.192l0.208-4.414L78.166,65.386z"/>
					</g>
				</g>
				<g>
					<g>
						
							<ellipse transform="matrix(0.0472 -0.9989 0.9989 0.0472 24.2077 158.427)" class="st8" cx="95.147" cy="66.524" rx="11.742" ry="17.059"/>
					</g>
				</g>
				<g>
					<g>
						
							<ellipse transform="matrix(0.0472 -0.9989 0.9989 0.0472 24.2079 158.427)" class="st19" cx="95.147" cy="66.524" rx="9.14" ry="13.278"/>
					</g>
				</g>
				<g>
					<g>
						
							<ellipse transform="matrix(0.0472 -0.9989 0.9989 0.0472 24.2075 158.4269)" class="st0" cx="95.147" cy="66.524" rx="8.461" ry="12.293"/>
					</g>
				</g>
			</g>
		</g>
		<g>
			<g>
				<g>
					<g>
						<path class="st13" d="M38.75,41.38v-4.419H4.683v3.812c-0.026,0.264-0.044,0.53-0.044,0.798
							c0,6.485,7.638,11.742,17.059,11.742c9.178,0,16.66-4.989,17.041-11.242h0.011v-0.308c0.001-0.064,0.007-0.127,0.007-0.192
							S38.752,41.444,38.75,41.38z"/>
					</g>
				</g>
				<g>
					<g>
						<ellipse class="st8" cx="21.698" cy="37.297" rx="17.059" ry="11.742"/>
					</g>
				</g>
				<g>
					<g>
						<ellipse class="st19" cx="21.698" cy="37.297" rx="13.278" ry="9.14"/>
					</g>
				</g>
				<g>
					<g>
						<ellipse class="st0" cx="21.698" cy="37.297" rx="12.293" ry="8.462"/>
					</g>
				</g>
			</g>
		</g>
		<g>
			<g>
				<g>
					<g>
						<path class="st13" d="M35.279,33.569V29.15H1.211v3.812c-0.026,0.264-0.044,0.53-0.044,0.798
							c0,6.485,7.638,11.742,17.059,11.742c9.178,0,16.66-4.989,17.041-11.242h0.011v-0.308c0.002-0.064,0.007-0.127,0.007-0.192
							C35.286,33.696,35.28,33.633,35.279,33.569z"/>
					</g>
				</g>
				<g>
					<g>
						<ellipse class="st8" cx="18.227" cy="29.486" rx="17.059" ry="11.742"/>
					</g>
				</g>
				<g>
					<g>
						<ellipse class="st19" cx="18.227" cy="29.486" rx="13.278" ry="9.14"/>
					</g>
				</g>
				<g>
					<g>
						<ellipse class="st0" cx="18.227" cy="29.486" rx="12.293" ry="8.462"/>
					</g>
				</g>
			</g>
		</g>
		<g>
			<g>
				<g>
					<circle class="st8" cx="34.116" cy="77.983" r="16.549"/>
				</g>
			</g>
			<g>
				<g>
					<circle class="st13" cx="34.116" cy="80.708" r="16.549"/>
				</g>
			</g>
			<g>
				<g>
					<circle class="st19" cx="34.116" cy="80.708" r="12.881"/>
				</g>
			</g>
			<g>
				<g>
					<circle class="st0" cx="34.116" cy="80.708" r="11.925"/>
				</g>
			</g>
			<g>
				<g>
					<path class="st13" d="M36.673,79.793c-1.655-1.26-2.471-1.878-2.471-2.471c0-0.173,0.099-0.371,0.321-0.371
						c0.198,0,0.642,0.939,0.815,0.939l3.385-0.173c0.173-0.025,0.272-0.124,0.272-0.271c0-2.175-1.384-4.052-3.657-4.522
						c0-1.458,0-1.606-0.198-1.606h-1.804c-0.099,0-0.173,0.099-0.173,0.222V72.9c-2.298,0.47-3.533,2.446-3.533,4.324
						c0,1.779,0.914,3.237,2.322,4.25c1.952,1.408,2.545,1.952,2.545,2.594c0,0.321-0.222,0.544-0.543,0.544
						c-0.569,0-0.964-0.519-1.137-1.384c-0.049-0.222-0.124-0.271-0.272-0.271l-3.138,0.173c-0.124,0.024-0.197,0.098-0.197,0.222
						c0,2.916,1.359,4.62,3.953,5.09c0,1.482,0,1.655,0.197,1.655h1.779c0.099,0,0.198-0.099,0.198-0.198v-1.433
						c2.298-0.445,3.681-2.125,3.681-4.596C39.02,82.338,38.205,80.955,36.673,79.793z"/>
				</g>
			</g>
			<g>
				<g>
					<path class="st8" d="M36.673,78.871c-1.655-1.26-2.471-1.878-2.471-2.471c0-0.173,0.099-0.371,0.321-0.371
						c0.198,0,0.642,0.939,0.815,0.939l3.385-0.173c0.173-0.025,0.272-0.124,0.272-0.272c0-2.175-1.384-4.052-3.657-4.522
						c0-1.458,0-1.606-0.198-1.606h-1.804c-0.099,0-0.173,0.099-0.173,0.222v1.359c-2.298,0.47-3.533,2.446-3.533,4.324
						c0,1.779,0.914,3.237,2.322,4.25c1.952,1.408,2.545,1.952,2.545,2.594c0,0.321-0.222,0.544-0.543,0.544
						c-0.569,0-0.964-0.519-1.137-1.384c-0.049-0.222-0.124-0.271-0.272-0.271l-3.138,0.173c-0.124,0.024-0.197,0.098-0.197,0.222
						c0,2.916,1.359,4.62,3.953,5.09c0,1.482,0,1.655,0.197,1.655h1.779c0.099,0,0.198-0.099,0.198-0.198v-1.433
						c2.298-0.445,3.681-2.125,3.681-4.596C39.02,81.416,38.205,80.032,36.673,78.871z"/>
				</g>
			</g>
		</g>
		<g>
			<g>
				<g>
					<path class="st13" d="M20.587,28.557c-1.988-1.012-2.967-1.508-2.967-1.984c0-0.139,0.119-0.298,0.386-0.298
						c0.237,0,0.771,0.754,0.979,0.754l4.065-0.139c0.207-0.02,0.326-0.099,0.326-0.218c0-1.746-1.661-3.254-4.391-3.631
						c0-1.17,0-1.29-0.237-1.29h-2.166c-0.119,0-0.207,0.079-0.207,0.179v1.091c-2.759,0.377-4.243,1.964-4.243,3.472
						c0,1.429,1.098,2.599,2.789,3.412c2.344,1.131,3.056,1.567,3.056,2.083c0,0.258-0.267,0.437-0.653,0.437
						c-0.683,0-1.157-0.417-1.365-1.111c-0.059-0.178-0.148-0.218-0.326-0.218l-3.768,0.139c-0.148,0.02-0.237,0.079-0.237,0.178
						c0,2.341,1.632,3.71,4.747,4.087c0,1.19,0,1.329,0.237,1.329h2.136c0.119,0,0.237-0.079,0.237-0.159v-1.151
						c2.759-0.357,4.42-1.706,4.42-3.69C23.405,30.6,22.426,29.49,20.587,28.557z"/>
				</g>
			</g>
			<g>
				<g>
					<path class="st8" d="M20.587,27.816c-1.988-1.012-2.967-1.508-2.967-1.984c0-0.139,0.119-0.298,0.386-0.298
						c0.237,0,0.771,0.754,0.979,0.754l4.065-0.139c0.207-0.02,0.326-0.099,0.326-0.218c0-1.746-1.661-3.254-4.391-3.631
						c0-1.17,0-1.29-0.237-1.29h-2.166c-0.119,0-0.207,0.08-0.207,0.179v1.091c-2.759,0.377-4.243,1.964-4.243,3.472
						c0,1.429,1.098,2.599,2.789,3.412c2.344,1.131,3.056,1.567,3.056,2.083c0,0.258-0.267,0.437-0.653,0.437
						c-0.683,0-1.157-0.417-1.365-1.111c-0.059-0.178-0.148-0.218-0.326-0.218l-3.768,0.139c-0.148,0.02-0.237,0.079-0.237,0.178
						c0,2.341,1.632,3.71,4.747,4.087c0,1.19,0,1.329,0.237,1.329h2.136c0.119,0,0.237-0.079,0.237-0.159V34.78
						c2.759-0.357,4.42-1.706,4.42-3.69C23.405,29.86,22.426,28.749,20.587,27.816z"/>
				</g>
			</g>
		</g>
		<g>
			<g>
				<g>
					<path class="st13" d="M62.462,54.558c-1.988-1.012-2.967-1.508-2.967-1.984c0-0.139,0.119-0.298,0.386-0.298
						c0.237,0,0.771,0.754,0.979,0.754l4.065-0.139c0.207-0.02,0.326-0.099,0.326-0.218c0-1.746-1.661-3.254-4.391-3.631
						c0-1.171,0-1.29-0.237-1.29h-2.166c-0.119,0-0.207,0.079-0.207,0.179v1.091c-2.759,0.377-4.243,1.964-4.243,3.472
						c0,1.429,1.098,2.599,2.789,3.412c2.344,1.131,3.056,1.567,3.056,2.083c0,0.258-0.267,0.437-0.653,0.437
						c-0.683,0-1.157-0.417-1.365-1.111c-0.059-0.178-0.148-0.218-0.326-0.218l-3.768,0.139c-0.148,0.02-0.237,0.079-0.237,0.178
						c0,2.341,1.632,3.71,4.747,4.087c0,1.19,0,1.329,0.237,1.329h2.136c0.119,0,0.237-0.08,0.237-0.159v-1.151
						c2.759-0.357,4.42-1.706,4.42-3.69C65.28,56.601,64.301,55.49,62.462,54.558z"/>
				</g>
			</g>
			<g>
				<g>
					<path class="st8" d="M62.462,53.817c-1.988-1.012-2.967-1.508-2.967-1.984c0-0.139,0.119-0.298,0.386-0.298
						c0.237,0,0.771,0.754,0.979,0.754l4.065-0.139c0.207-0.02,0.326-0.099,0.326-0.218c0-1.746-1.661-3.254-4.391-3.631
						c0-1.171,0-1.29-0.237-1.29h-2.166c-0.119,0-0.207,0.079-0.207,0.179v1.091c-2.759,0.377-4.243,1.964-4.243,3.472
						c0,1.429,1.098,2.599,2.789,3.412c2.344,1.131,3.056,1.567,3.056,2.083c0,0.258-0.267,0.437-0.653,0.437
						c-0.683,0-1.157-0.417-1.365-1.111c-0.059-0.178-0.148-0.218-0.326-0.218l-3.768,0.139c-0.148,0.02-0.237,0.079-0.237,0.178
						c0,2.341,1.632,3.71,4.747,4.087c0,1.19,0,1.329,0.237,1.329h2.136c0.119,0,0.237-0.079,0.237-0.159v-1.151
						c2.759-0.357,4.42-1.706,4.42-3.69C65.28,55.86,64.301,54.75,62.462,53.817z"/>
				</g>
			</g>
		</g>
		<g>
			<g>
				<g>
					<path class="st13" d="M97.721,66.335c-1.988-1.012-2.967-1.508-2.967-1.984c0-0.139,0.119-0.298,0.386-0.298
						c0.237,0,0.771,0.754,0.979,0.754l4.065-0.139c0.207-0.02,0.326-0.099,0.326-0.218c0-1.746-1.661-3.254-4.391-3.631
						c0-1.17,0-1.29-0.237-1.29h-2.166c-0.119,0-0.207,0.08-0.207,0.179v1.091c-2.759,0.377-4.243,1.964-4.243,3.472
						c0,1.429,1.098,2.599,2.789,3.412c2.344,1.131,3.056,1.567,3.056,2.083c0,0.258-0.267,0.437-0.653,0.437
						c-0.683,0-1.157-0.417-1.365-1.111c-0.059-0.178-0.148-0.218-0.326-0.218l-3.768,0.139c-0.148,0.02-0.237,0.079-0.237,0.178
						c0,2.341,1.632,3.71,4.747,4.087c0,1.19,0,1.329,0.237,1.329h2.136c0.119,0,0.237-0.079,0.237-0.159v-1.151
						c2.759-0.357,4.42-1.706,4.42-3.69C100.539,68.378,99.56,67.267,97.721,66.335z"/>
				</g>
			</g>
			<g>
				<g>
					<path class="st8" d="M97.721,65.594c-1.988-1.012-2.967-1.508-2.967-1.984c0-0.139,0.119-0.298,0.386-0.298
						c0.237,0,0.771,0.754,0.979,0.754l4.065-0.139c0.207-0.02,0.326-0.099,0.326-0.218c0-1.746-1.661-3.254-4.391-3.631
						c0-1.17,0-1.29-0.237-1.29h-2.166c-0.119,0-0.207,0.08-0.207,0.179v1.091c-2.759,0.377-4.243,1.964-4.243,3.472
						c0,1.429,1.098,2.599,2.789,3.412c2.344,1.131,3.056,1.567,3.056,2.083c0,0.258-0.267,0.437-0.653,0.437
						c-0.683,0-1.157-0.417-1.365-1.111c-0.059-0.178-0.148-0.218-0.326-0.218l-3.768,0.139c-0.148,0.02-0.237,0.079-0.237,0.178
						c0,2.341,1.632,3.71,4.747,4.087c0,1.19,0,1.329,0.237,1.329h2.136c0.119,0,0.237-0.079,0.237-0.159v-1.151
						c2.759-0.357,4.42-1.706,4.42-3.69C100.539,67.637,99.56,66.526,97.721,65.594z"/>
				</g>
			</g>
		</g>
	</g>
	<g>
		<g>
			<path class="st19" d="M27.891,25.262c0,5.135-3.461,9.297-7.73,9.297c4.269,0,7.73,4.162,7.73,9.297
				c0-5.135,3.461-9.297,7.73-9.297C31.351,34.558,27.891,30.396,27.891,25.262z"/>
		</g>
	</g>
	<g>
		<g>
			<path class="st19" d="M43.514,63.018c0,5.135-3.461,9.297-7.73,9.297c4.269,0,7.73,4.162,7.73,9.297
				c0-5.134,3.461-9.297,7.73-9.297C46.975,72.315,43.514,68.152,43.514,63.018z"/>
		</g>
	</g>
	<g>
		<g>
			<path class="st19" d="M102.754,63.72c0,6.218-4.191,11.259-9.361,11.259c5.17,0,9.361,5.041,9.361,11.259
				c0-6.218,4.191-11.259,9.361-11.259C106.945,74.979,102.754,69.938,102.754,63.72z"/>
		</g>
	</g>
</g>
</svg>
