<svg xmlns="http://www.w3.org/2000/svg" viewBox="0 0 48 48"><title>30-crown</title><g id="_30-crown" data-name="30-crown"><path d="M44,43H4V35H44Z" style="fill:#ffdf64"/><path d="M45,43a2.006,2.006,0,0,1,2,2,2.015,2.015,0,0,1-2,2H3a2.006,2.006,0,0,1-2-2,1.955,1.955,0,0,1,.59-1.41A1.955,1.955,0,0,1,3,43H45Z" style="fill:#a672f1"/><path d="M45,31a2.006,2.006,0,0,1,2,2,2.015,2.015,0,0,1-2,2H3a2.006,2.006,0,0,1-2-2,1.955,1.955,0,0,1,.59-1.41A1.955,1.955,0,0,1,3,31H45Z" style="fill:#a672f1"/><path d="M44.27,18.27C45.29,18.77,46,20.1,46,23c0,3.76-1.18,4.87-2.7,4.99-.1.01-.2.01-.3.01-1.66,0-3-1-3-5s1.34-5,3-5A2.841,2.841,0,0,1,44.27,18.27Z" style="fill:#a672f1"/><path d="M3.73,18.27A2.841,2.841,0,0,1,5,18c1.66,0,3,1,3,5s-1.34,5-3,5c-.1,0-.2,0-.3-.01C3.18,27.87,2,26.76,2,23,2,20.1,2.71,18.77,3.73,18.27Z" style="fill:#a672f1"/><path d="M43,18a2.841,2.841,0,0,1,1.27.27l.31-3.02L33,22l-2.9-3.86L24,10,15,22,3.42,15.25l.31,3.02A2.841,2.841,0,0,1,5,18c1.66,0,3,1,3,5s-1.34,5-3,5c-.1,0-.2,0-.3-.01V28L5,31H43l.3-3v-.01c-.1.01-.2.01-.3.01-1.66,0-3-1-3-5S41.34,18,43,18Z" style="fill:#ffdf64"/><polygon points="40 14.057 40 14 36 7 29.09 11.93 33.55 18 40 14.057" style="fill:#ffb844"/><polygon points="18.91 11.93 12 7 8 14 8 14.057 14.45 18 18.91 11.93" style="fill:#ffb844"/><polygon points="33.55 18 45 11 44.58 15.25 33 22 30.1 18.14 24 10 15 22 3.42 15.25 3 11 14.45 18 18.91 11.93 24 5 29.09 11.93 33.55 18" style="fill:#fff978"/><polygon points="30.192 13.43 33.55 18 38.012 15.272 35 10 30.192 13.43" style="fill:#ff942c"/><polygon points="17.808 13.43 13 10 9.988 15.272 14.45 18 17.808 13.43" style="fill:#ff942c"/><rect x="4" y="35" width="40" height="2" style="fill:#ffce54"/><rect x="4" y="41" width="40" height="2" style="fill:#ffce54"/><path d="M46.41,44.41A1.955,1.955,0,0,1,45,45H3a2,2,0,0,1-1.721-1A1.963,1.963,0,0,0,1,45a2.006,2.006,0,0,0,2,2H45a1.984,1.984,0,0,0,1.721-3A1.938,1.938,0,0,1,46.41,44.41Z" style="fill:#8163ff"/><path d="M46.41,32.41A1.955,1.955,0,0,1,45,33H3a2,2,0,0,1-1.721-1A1.963,1.963,0,0,0,1,33a2.006,2.006,0,0,0,2,2H45a1.984,1.984,0,0,0,1.721-3A1.938,1.938,0,0,1,46.41,32.41Z" style="fill:#8163ff"/><path d="M40,23c0-3.126.82-4.416,1.97-4.832A3.035,3.035,0,0,0,41,18c-1.66,0-3,1-3,5s1.34,5,3,5c.1,0,.2,0,.3-.01a2.789,2.789,0,0,0,.7-.146C40.836,27.441,40,26.157,40,23Z" style="fill:#ffce54"/><path d="M8,23c0-3.126-.82-4.416-1.97-4.832A3.035,3.035,0,0,1,7,18c1.66,0,3,1,3,5s-1.34,5-3,5c-.1,0-.2,0-.3-.01a2.789,2.789,0,0,1-.7-.146C7.164,27.441,8,26.157,8,23Z" style="fill:#ffce54"/><polygon points="24 28 5 28 4.7 28 5 31 24 31 43 31 43.3 28 43 28 24 28" style="fill:#ffce54"/><polygon points="27 21 27 25 24 27 21 25 21 21 24 19 27 21" style="fill:#e1e7f7"/><polygon points="22 21.9 24 20.5 24 19 21 21 22 22 22 21.9" style="fill:#f7f7ff"/><polygon points="22 22 21 21 21 25 22 24 22 22" style="fill:#fff"/><polygon points="26 21.9 26 22 27 21 24 19 24 20.5 26 21.9" style="fill:#fff"/><polygon points="26 22 26 24 27 25 27 21 26 22" style="fill:#f7f7ff"/><polygon points="26 24.1 24 25.5 24 27 27 25 26 24 26 24.1" style="fill:#d3d9f2"/><polygon points="22 24.1 22 24 21 25 24 27 24 25.5 22 24.1" style="fill:#c7ccf0"/><polygon points="45 21 45 25 43 27 41 25 41 21 43 19 45 21" style="fill:#e1e7f7"/><polygon points="41.667 21.9 43 20.5 43 19 41 21 41.667 22 41.667 21.9" style="fill:#f7f7ff"/><polygon points="41.667 22 41 21 41 25 41.667 24 41.667 22" style="fill:#fff"/><polygon points="44.333 21.9 44.333 22 45 21 43 19 43 20.5 44.333 21.9" style="fill:#fff"/><polygon points="44.333 22 44.333 24 45 25 45 21 44.333 22" style="fill:#f7f7ff"/><polygon points="44.333 24.1 43 25.5 43 27 45 25 44.333 24 44.333 24.1" style="fill:#d3d9f2"/><polygon points="41.667 24.1 41.667 24 41 25 43 27 43 25.5 41.667 24.1" style="fill:#c7ccf0"/><polygon points="7 21 7 25 5 27 3 25 3 21 5 19 7 21" style="fill:#e1e7f7"/><polygon points="3.667 21.9 5 20.5 5 19 3 21 3.667 22 3.667 21.9" style="fill:#f7f7ff"/><polygon points="3.667 22 3 21 3 25 3.667 24 3.667 22" style="fill:#fff"/><polygon points="6.333 21.9 6.333 22 7 21 5 19 5 20.5 6.333 21.9" style="fill:#fff"/><polygon points="6.333 22 6.333 24 7 25 7 21 6.333 22" style="fill:#f7f7ff"/><polygon points="6.333 24.1 5 25.5 5 27 7 25 6.333 24 6.333 24.1" style="fill:#d3d9f2"/><polygon points="3.667 24.1 3.667 24 3 25 5 27 5 25.5 3.667 24.1" style="fill:#c7ccf0"/><circle cx="45" cy="9" r="2" style="fill:#ffce54"/><circle cx="24" cy="3" r="2" style="fill:#ffce54"/><circle cx="3" cy="9" r="2" style="fill:#ffce54"/><polygon points="37 37.5 37 40.5 35 42 33 40.5 33 37.5 35 36 37 37.5" style="fill:#a672f1"/><polygon points="33.667 38.175 35 37.125 35 36 33 37.5 33.667 38.25 33.667 38.175" style="fill:#976efa"/><polygon points="33.667 38.25 33 37.5 33 40.5 33.667 39.75 33.667 38.25" style="fill:#b785ff"/><polygon points="36.333 38.175 36.333 38.25 37 37.5 35 36 35 37.125 36.333 38.175" style="fill:#b785ff"/><polygon points="36.333 38.25 36.333 39.75 37 40.5 37 37.5 36.333 38.25" style="fill:#976efa"/><polygon points="36.333 39.825 35 40.875 35 42 37 40.5 36.333 39.75 36.333 39.825" style="fill:#8163ff"/><polygon points="33.667 39.825 33.667 39.75 33 40.5 35 42 35 40.875 33.667 39.825" style="fill:#6960ff"/><polygon points="26 37.5 26 40.5 24 42 22 40.5 22 37.5 24 36 26 37.5" style="fill:#a672f1"/><polygon points="22.667 38.175 24 37.125 24 36 22 37.5 22.667 38.25 22.667 38.175" style="fill:#976efa"/><polygon points="22.667 38.25 22 37.5 22 40.5 22.667 39.75 22.667 38.25" style="fill:#b785ff"/><polygon points="25.333 38.175 25.333 38.25 26 37.5 24 36 24 37.125 25.333 38.175" style="fill:#b785ff"/><polygon points="25.333 38.25 25.333 39.75 26 40.5 26 37.5 25.333 38.25" style="fill:#976efa"/><polygon points="25.333 39.825 24 40.875 24 42 26 40.5 25.333 39.75 25.333 39.825" style="fill:#8163ff"/><polygon points="22.667 39.825 22.667 39.75 22 40.5 24 42 24 40.875 22.667 39.825" style="fill:#6960ff"/><polygon points="14 37.5 14 40.5 12 42 10 40.5 10 37.5 12 36 14 37.5" style="fill:#a672f1"/><polygon points="10.667 38.175 12 37.125 12 36 10 37.5 10.667 38.25 10.667 38.175" style="fill:#976efa"/><polygon points="10.667 38.25 10 37.5 10 40.5 10.667 39.75 10.667 38.25" style="fill:#b785ff"/><polygon points="13.333 38.175 13.333 38.25 14 37.5 12 36 12 37.125 13.333 38.175" style="fill:#b785ff"/><polygon points="13.333 38.25 13.333 39.75 14 40.5 14 37.5 13.333 38.25" style="fill:#976efa"/><polygon points="13.333 39.825 12 40.875 12 42 14 40.5 13.333 39.75 13.333 39.825" style="fill:#8163ff"/><polygon points="10.667 39.825 10.667 39.75 10 40.5 12 42 12 40.875 10.667 39.825" style="fill:#6960ff"/><path d="M24.682,32.5a.5.5,0,0,0,.5.5h15a.5.5,0,0,0,0-1h-15A.5.5,0,0,0,24.682,32.5Z" style="fill:#b785ff"/><path d="M41.682,32.5a.5.5,0,0,0,.5.5h1a.5.5,0,0,0,0-1h-1A.5.5,0,0,0,41.682,32.5Z" style="fill:#b785ff"/><rect x="7" y="44" width="6" height="1" rx="0.5" ry="0.5" style="fill:#b785ff"/><rect x="14" y="44" width="2" height="1" rx="0.5" ry="0.5" style="fill:#b785ff"/><ellipse cx="35.684" cy="25.695" rx="1.642" ry="2.286" transform="translate(-7.715 32.773) rotate(-45.02)" style="fill:#f6fafd"/><ellipse cx="24.682" cy="2.708" rx="0.825" ry="1.148" transform="translate(5.32 18.252) rotate(-45.02)" style="fill:#f6fafd"/><ellipse cx="45.682" cy="8.708" rx="0.825" ry="1.148" transform="translate(7.231 34.865) rotate(-45.02)" style="fill:#f6fafd"/><ellipse cx="32.682" cy="26.708" rx="0.825" ry="1.148" transform="translate(-9.312 30.946) rotate(-45.02)" style="fill:#f6fafd"/><ellipse cx="3.682" cy="8.708" rx="0.825" ry="1.148" transform="translate(-5.08 5.157) rotate(-45.02)" style="fill:#f6fafd"/><path d="M48,33a3,3,0,0,0-3-3h-.9l.12-1.2C46.058,28.236,47,26.305,47,23c0-2.564-.566-4.3-1.672-5.223l.593-5.937a2.987,2.987,0,1,0-3.039-.718l-2.5,1.529L36.868,6.5a1,1,0,0,0-1.449-.317l-6.1,4.36L25.62,5.517a3,3,0,1,0-3.24,0l-3.694,5.03-6.1-4.36a1,1,0,0,0-1.449.317L7.619,12.651l-2.5-1.529a3.008,3.008,0,1,0-3.039.718l.593,5.937C1.566,18.7,1,20.436,1,23c0,3.305.942,5.236,2.775,5.8L3.9,30H3a3,3,0,0,0,0,6v6a3,3,0,0,0,0,6H45a3,3,0,0,0,0-6V36A3,3,0,0,0,48,33Zm-5-6c-.649,0-2,0-2-4s1.351-4,2-4,2,0,2,4S43.649,27,43,27ZM45,8a1,1,0,1,1-1,1A1,1,0,0,1,45,8Zm-9.319.457,2.993,5.237-4.865,2.974L30.5,12.159ZM24,2a1,1,0,1,1-1,1A1,1,0,0,1,24,2ZM12.319,8.457l5.184,3.7-3.312,4.509L9.326,13.694ZM3,8a1,1,0,0,1,0,2H3A1,1,0,0,1,3,8ZM5,19c.649,0,2,0,2,4s-1.351,4-2,4-2,0-2-4S4.351,19,5,19ZM2,33a1,1,0,0,1,1-1h8V30H5.905L5.8,28.919C7.918,28.535,9,26.557,9,23a9.837,9.837,0,0,0-.583-3.682L14.5,22.864a1,1,0,0,0,1.3-.264l2.25-3-1.6-1.2-1.716,2.288L4.369,14.64,4.2,12.9l9.738,5.952a1,1,0,0,0,1.327-.262L24,6.689l8.74,11.9a1,1,0,0,0,1.327.262L43.805,12.9l-.174,1.738L33.266,20.688,31.549,18.4l-1.6,1.2,2.251,3a1,1,0,0,0,1.3.264l6.079-3.546A9.837,9.837,0,0,0,39,23c0,3.557,1.082,5.535,3.2,5.919L42.1,30H17v2H45a1,1,0,0,1,0,2H36v1.5l-.4-.3a1,1,0,0,0-1.2,0l-.4.3V34H3A1,1,0,0,1,2,33Zm30.4,8.3.934.7H25.666l.934-.7a1,1,0,0,0,.4-.8v-3a1,1,0,0,0-.4-.8l-.934-.7h7.668l-.934.7a1,1,0,0,0-.4.8v3A1,1,0,0,0,32.4,41.3ZM11,38l1-.75L13,38v2l-1,.75L11,40Zm3.6-1.3-.934-.7h8.668l-.934.7a1,1,0,0,0-.4.8v3a1,1,0,0,0,.4.8l.934.7H13.666l.934-.7a1,1,0,0,0,.4-.8v-3A1,1,0,0,0,14.6,36.7ZM25,40l-1,.75L23,40V38l1-.75L25,38Zm9-2,1-.75L36,38v2l-1,.75L34,40ZM5,36h5.334l-.934.7a1,1,0,0,0-.4.8v3a1,1,0,0,0,.4.8l.934.7H5Zm38,6H40v2h5a1,1,0,0,1,0,2H3a1,1,0,0,1,0-2H34V42.5l.4.3a1,1,0,0,0,1.2,0l.4-.3V44h2V42H36.666l.934-.7a1,1,0,0,0,.4-.8v-3a1,1,0,0,0-.4-.8l-.934-.7H43Z"/><rect x="13" y="30" width="2" height="2"/><path d="M24,11.667,28.452,17.6l1.6-1.2L24.8,9.4a1.036,1.036,0,0,0-1.6,0l-5.25,7,1.6,1.2Z"/><path d="M27.555,20.168l-3-2a1,1,0,0,0-1.11,0l-3,2A1,1,0,0,0,20,21v4a1,1,0,0,0,.445.832l3,2a1,1,0,0,0,1.11,0l3-2A1,1,0,0,0,28,25V21A1,1,0,0,0,27.555,20.168ZM26,24.465,24,25.8l-2-1.333v-2.93L24,20.2l2,1.333Z"/></g></svg>