<svg xmlns="http://www.w3.org/2000/svg" width="128" height="128" viewBox="0 0 128 128">
  <title>CROWN</title>
  <g>
    <rect x="25.148" y="87.83" width="77.705" height="10.553" rx="4.872" fill="#f89068"/>
    <path d="M100.551,47.49a7.624,7.624,0,0,0-5.986,12.355l-16.534,7.6L66.551,44.859a7.631,7.631,0,1,0-5.1,0L49.969,67.446l-16.534-7.6a7.732,7.732,0,1,0-5.04,2.842L32.646,87.83H95.354l4.251-25.143a7.628,7.628,0,1,0,.946-15.2Z" fill="#ffc26f"/>
  </g>
  <path d="M64,96.633a1.75,1.75,0,0,1,0,3.5H62.333a1.75,1.75,0,0,1,0-3.5Zm37.075-32.146L97.424,86.081h.556A6.63,6.63,0,0,1,104.6,92.7v.808a6.63,6.63,0,0,1-6.623,6.622H73a1.75,1.75,0,0,1,0-3.5H97.98a3.126,3.126,0,0,0,3.123-3.122V92.7a3.126,3.126,0,0,0-3.123-3.122H30.02A3.126,3.126,0,0,0,26.9,92.7v.808a3.126,3.126,0,0,0,3.123,3.122H52.5a1.75,1.75,0,0,1,0,3.5H30.02A6.63,6.63,0,0,1,23.4,93.511V92.7a6.63,6.63,0,0,1,6.623-6.622h.556L26.925,64.487a9.381,9.381,0,1,1,9.9-9.366,9.288,9.288,0,0,1-.874,3.956l13.216,6.075,9.91-19.5a9.381,9.381,0,1,1,9.836,0l9.91,19.5,13.216-6.075a9.288,9.288,0,0,1-.874-3.956,9.381,9.381,0,1,1,9.905,9.366ZM100.551,61a5.881,5.881,0,1,0-5.881-5.881,5.818,5.818,0,0,0,1.268,3.639,1.751,1.751,0,0,1-.643,2.675l-16.534,7.6a1.749,1.749,0,0,1-2.291-.8L64.99,45.652a1.752,1.752,0,0,1,.975-2.442,5.881,5.881,0,1,0-3.93,0,1.752,1.752,0,0,1,.975,2.442L51.53,68.238a1.749,1.749,0,0,1-2.291.8l-16.534-7.6a1.75,1.75,0,0,1-.642-2.675,5.823,5.823,0,0,0,1.267-3.639A5.881,5.881,0,1,0,27.449,61a6.121,6.121,0,0,0,.732-.051,1.755,1.755,0,0,1,1.94,1.445l4,23.685h59.75l4-23.685a1.754,1.754,0,0,1,1.94-1.445A6.121,6.121,0,0,0,100.551,61Z" fill="#13134c"/>
</svg>
