<?xml version="1.0" encoding="iso-8859-1"?>
<!-- Generator: Adobe Illustrator 19.0.0, SVG Export Plug-In . SVG Version: 6.00 Build 0)  -->
<svg xmlns="http://www.w3.org/2000/svg" xmlns:xlink="http://www.w3.org/1999/xlink" version="1.1" id="Layer_1" x="0px" y="0px" viewBox="0 0 512 512" style="enable-background:new 0 0 512 512;" xml:space="preserve">
<polyline style="fill:#F44321;" points="178.311,208.783 205.834,253.948 310.769,253.948 160.942,8.084 56.006,8.084   164.967,186.886 "/>
<polygon style="fill:#4D90F4;" points="160.942,8.084 310.769,253.948 257.223,253.948 107.396,8.084 "/>
<polygon style="fill:#E8331A;" points="200.134,244.593 253.547,160.048 228.506,118.956 175.093,203.502 178.311,208.783 "/>
<polygon style="fill:#3C81C6;" points="201.252,162.098 226.291,203.189 253.547,160.048 228.506,118.956 "/>
<polyline style="fill:#4D90F4;" points="335.597,208.783 308.074,253.948 203.139,253.948 352.966,8.084 457.902,8.084   348.94,186.886 "/>
<polygon style="fill:#F44321;" points="352.966,8.084 203.139,253.948 256.684,253.948 406.512,8.084 "/>
<path style="fill:#FE9900;" d="M255.607,304.789c-47.469,0-86.088,38.62-86.088,86.089c0,47.47,38.619,86.09,86.088,86.09  c47.472,0,86.09-38.62,86.09-86.09C341.697,343.409,303.078,304.789,255.607,304.789z"/>
<path style="fill:#EF7A06;" d="M221.445,390.878c0-38.424,25.308-71.041,60.125-82.08c-8.196-2.599-16.918-4.01-25.964-4.01  c-47.469,0-86.088,38.62-86.088,86.089c0,47.47,38.619,86.09,86.088,86.09c9.047,0,17.767-1.411,25.964-4.01  C246.753,461.92,221.445,429.302,221.445,390.878z"/>
<g>
	<path style="fill:#F9AB43;" d="M293.444,381.799c-0.72-2.218-2.635-3.833-4.943-4.167l-18.934-2.753l-8.469-17.159   c-1.032-2.089-3.16-3.413-5.491-3.413c-2.33,0-4.459,1.324-5.491,3.413l-8.468,17.159l-18.936,2.753   c-2.306,0.335-4.223,1.95-4.943,4.167c-0.72,2.216-0.12,4.65,1.55,6.276l13.703,13.358l-3.236,18.859   c-0.393,2.297,0.552,4.619,2.436,5.989c1.886,1.369,4.385,1.551,6.448,0.467l16.937-8.904l16.937,8.904   c0.895,0.472,1.873,0.703,2.849,0.703c1.27,0,2.533-0.395,3.6-1.17c1.886-1.37,2.829-3.692,2.436-5.989l-3.234-18.859   l13.701-13.358C293.565,386.449,294.164,384.015,293.444,381.799z"/>
	<path style="fill:#F9AB43;" d="M255.607,503.916c-62.328,0-113.036-50.708-113.036-113.038   c0-62.328,50.707-113.037,113.036-113.037c62.33,0,113.038,50.708,113.038,113.037   C368.644,453.207,317.937,503.916,255.607,503.916z M255.607,304.789c-47.469,0-86.088,38.62-86.088,86.089   c0,47.47,38.619,86.09,86.088,86.09c47.472,0,86.09-38.62,86.09-86.09C341.697,343.409,303.078,304.789,255.607,304.789z"/>
</g>
<g>
	<path style="fill:#231F20;" d="M289.664,369.632l-14.729-2.141l-6.588-13.35c-2.411-4.884-7.293-7.918-12.74-7.918   c-5.448,0-10.328,3.033-12.74,7.919l-6.587,13.349l-14.728,2.141c-5.394,0.784-9.789,4.488-11.471,9.67   c-1.684,5.183-0.306,10.763,3.595,14.562l10.66,10.392l-2.517,14.671c-0.921,5.367,1.244,10.691,5.654,13.896   c2.444,1.774,5.331,2.712,8.35,2.712c2.295,0,4.58-0.564,6.61-1.632l13.175-6.927l13.168,6.922c2.031,1.07,4.319,1.636,6.618,1.636   c3.018,0,5.906-0.938,8.349-2.712c4.409-3.201,6.575-8.525,5.654-13.896l-2.515-14.67l10.656-10.39   c3.903-3.801,5.28-9.382,3.598-14.562C299.451,374.12,295.055,370.414,289.664,369.632z M272.55,395.645   c-1.906,1.857-2.775,4.533-2.324,7.155l2.562,14.943l-13.42-7.056c-1.178-0.619-2.471-0.928-3.762-0.928   c-1.291,0-2.584,0.309-3.762,0.928l-13.419,7.055l2.563-14.941c0.451-2.624-0.419-5.299-2.324-7.156l-10.857-10.584l15.004-2.181   c2.632-0.382,4.91-2.037,6.086-4.423l6.709-13.594l6.711,13.594c1.178,2.386,3.454,4.04,6.086,4.423l15.003,2.181L272.55,395.645z"/>
	<path style="fill:#231F20;" d="M255.607,296.705c-51.928,0-94.172,42.246-94.172,94.173c0,51.929,42.245,94.175,94.172,94.175   s94.175-42.246,94.175-94.175C349.781,338.95,307.534,296.705,255.607,296.705z M255.607,468.884   c-43.011,0-78.004-34.994-78.004-78.006s34.993-78.005,78.004-78.005c43.012,0,78.006,34.993,78.006,78.005   S298.619,468.884,255.607,468.884z"/>
	<path style="fill:#231F20;" d="M342.036,182.681c-2.324,3.813-1.116,8.787,2.697,11.11c3.813,2.325,8.786,1.117,11.11-2.696   L464.804,12.291c1.521-2.495,1.576-5.618,0.146-8.166C463.518,1.577,460.824,0,457.902,0h-51.39h-53.545   c-2.82,0-5.436,1.469-6.903,3.877L256,151.668L165.937,3.877C164.469,1.469,161.853,0,159.034,0H54.098   c-2.923,0-5.618,1.577-7.048,4.125c-1.43,2.548-1.375,5.671,0.146,8.166l140,229.737c-5.26,4.119-8.66,10.509-8.66,17.693v37.788   c-26.888,22.234-44.05,55.835-44.05,93.369c0,66.787,54.333,121.122,121.12,121.122s121.122-54.335,121.122-121.122   c0-37.534-17.163-71.136-44.052-93.369v-37.787c0-6.828-3.137-13.089-8.134-17.262l17.958-29.469   c2.324-3.813,1.116-8.787-2.697-11.11c-3.811-2.325-8.785-1.117-11.11,2.696l-22.446,36.833c-0.003,0.004-0.006,0.009-0.01,0.013   l-2.706,4.442h-32.455L411.052,16.168h32.455L342.036,182.681z M357.506,16.168h34.611l-76.833,126.084l-63.14,103.612h-34.611   L357.506,16.168z M246.534,167.203l-17.161,28.16l-109.2-179.195h34.321L246.534,167.203z M101.239,16.168l118.668,194.73   l-16.052,26.342h-0.641L68.493,16.168H101.239z M360.56,390.878c0,57.871-47.082,104.953-104.954,104.953   c-57.87,0-104.951-47.082-104.951-104.954c0-33.761,16.027-63.845,40.868-83.055c0.013-0.01,0.028-0.017,0.042-0.028   c2.267-1.752,4.589-3.399,6.96-4.946c0.079-0.051,0.155-0.103,0.234-0.154c1.022-0.663,2.057-1.3,3.097-1.925   c0.354-0.211,0.707-0.421,1.063-0.63c0.801-0.469,1.609-0.924,2.42-1.37c0.677-0.371,1.359-0.733,2.045-1.09   c0.322-0.168,0.646-0.333,0.969-0.497c7.403-3.749,15.305-6.651,23.581-8.566c0,0,0,0,0.001,0c1.549-0.358,3.112-0.678,4.686-0.967   c0.188-0.034,0.374-0.071,0.562-0.105c0.732-0.13,1.467-0.251,2.203-0.366c0.636-0.098,1.274-0.189,1.913-0.275   c0.788-0.108,1.579-0.206,2.372-0.296c0.797-0.089,1.593-0.172,2.393-0.245c0.409-0.037,0.817-0.077,1.227-0.109   c1.175-0.092,2.354-0.163,3.537-0.216c0.312-0.014,0.623-0.025,0.936-0.036c1.278-0.045,2.559-0.078,3.845-0.078   s2.566,0.032,3.845,0.078c0.311,0.011,0.624,0.022,0.936,0.036c1.182,0.053,2.363,0.124,3.538,0.216   c0.41,0.032,0.817,0.072,1.224,0.109c0.801,0.072,1.6,0.155,2.397,0.245c0.79,0.089,1.578,0.188,2.363,0.295   c0.642,0.087,1.284,0.178,1.923,0.277c0.735,0.114,1.469,0.235,2.2,0.365c0.191,0.033,0.382,0.072,0.572,0.107   c1.568,0.288,3.126,0.607,4.668,0.964c0.005,0.001,0.01,0.002,0.015,0.003c8.263,1.912,16.152,4.808,23.546,8.549   c0.344,0.175,0.688,0.35,1.03,0.528c0.649,0.337,1.295,0.678,1.935,1.028c0.845,0.465,1.687,0.939,2.521,1.427   c0.342,0.199,0.682,0.402,1.022,0.605c1.053,0.633,2.101,1.277,3.135,1.949c0.061,0.04,0.121,0.08,0.182,0.12   c2.382,1.554,4.716,3.209,6.992,4.969c0.014,0.011,0.029,0.017,0.043,0.028C344.533,327.034,360.56,357.117,360.56,390.878z    M308.074,262.032c0.705,0,1.397-0.092,2.062-0.267c1.994-0.526,3.74-1.804,4.841-3.61l0.567-0.931l0.249-0.409   c0.458,0.876,0.714,1.868,0.714,2.906v26.475c-13.126-7.693-27.454-12.755-42.456-15.037c-0.024-0.003-0.047-0.008-0.072-0.011   c-2.582-0.391-5.182-0.7-7.802-0.925c-0.585-0.051-1.171-0.101-1.758-0.144c-0.54-0.039-1.08-0.072-1.621-0.103   c-0.756-0.044-1.512-0.081-2.271-0.111c-0.429-0.017-0.858-0.037-1.288-0.05c-1.206-0.036-2.416-0.059-3.631-0.059   c-1.216,0-2.424,0.024-3.631,0.059c-0.43,0.013-0.859,0.032-1.288,0.05c-0.759,0.03-1.517,0.067-2.271,0.111   c-0.541,0.031-1.081,0.065-1.621,0.103c-0.587,0.042-1.173,0.093-1.758,0.144c-2.619,0.225-5.22,0.534-7.802,0.925   c-0.024,0.003-0.047,0.008-0.072,0.011c-15.003,2.283-29.331,7.344-42.456,15.037v-26.475c0-1.121,0.293-2.174,0.808-3.088   c0.014,0.04,0.039,0.078,0.054,0.119c0.146,0.395,0.314,0.783,0.524,1.156c1.43,2.548,4.125,4.125,7.048,4.125h53.522   c0.005,0,0.011,0.001,0.016,0.001s0.011-0.001,0.017-0.001H308.074L308.074,262.032z"/>
</g>
<g>
</g>
<g>
</g>
<g>
</g>
<g>
</g>
<g>
</g>
<g>
</g>
<g>
</g>
<g>
</g>
<g>
</g>
<g>
</g>
<g>
</g>
<g>
</g>
<g>
</g>
<g>
</g>
<g>
</g>
</svg>
