<?xml version="1.0" encoding="iso-8859-1"?>
<!-- Generator: Adobe Illustrator 19.0.0, SVG Export Plug-In . SVG Version: 6.00 Build 0)  -->
<svg xmlns="http://www.w3.org/2000/svg" xmlns:xlink="http://www.w3.org/1999/xlink" version="1.1" id="Capa_1" x="0px" y="0px" viewBox="0 0 512 512" style="enable-background:new 0 0 512 512;" xml:space="preserve">
<path style="fill:#FF903D;" d="M285.999,86.001h-30l30,70h30v-40C315.999,99.501,302.499,86.001,285.999,86.001z"/>
<g>
	<path style="fill:#FFB03B;" d="M255.999,86.001h-30c-16.5,0-30,13.5-30,30v40h90v-40C285.999,99.501,272.499,86.001,255.999,86.001   z"/>
	<path style="fill:#FFB03B;" d="M255.999,26.001l-10,30l10,30c16.569,0,30-13.431,30-30S272.567,26.001,255.999,26.001z"/>
</g>
<path style="fill:#FFC46C;" d="M225.999,56.001c0,16.569,13.431,30,30,30v-60C239.43,26.001,225.999,39.432,225.999,56.001z"/>
<path style="fill:#FF0F47;" d="M394.499,126.001h-30l60,210h30v-150C454.499,152.863,427.636,126.001,394.499,126.001z"/>
<path style="fill:#FF3744;" d="M364.499,126.001h-247c-33.137,0-60,26.863-60,60v150h367v-150  C424.499,152.863,397.636,126.001,364.499,126.001z"/>
<polygon style="fill:#FF903D;" points="504.499,196.001 469.616,218.46 394.507,455.963 454.499,426.001 "/>
<path style="fill:#FFB03B;" d="M420.249,250.246v25.755c0,22.091-17.909,40-40,40s-40-17.909-40-40v-25.755l-84.25-84.245  l-84.25,84.245v25.755c0,22.091-17.909,40-40,40s-40-17.909-40-40v-25.755l-84.25-54.245l50,229.497l198.5,30.204l168.508-29.739  l45.109-207.502L420.249,250.246z"/>
<polygon style="fill:#FF7040;" points="424.499,486.001 454.499,486.001 454.499,426.001 424.499,426.001 394.499,456.001 "/>
<rect x="57.498" y="426" style="fill:#FF903D;" width="367" height="60"/>
<path style="fill:#2DCEEA;" d="M255.999,298.123l-13.333,40l13.333,40c22.091,0,40-17.909,40-40  C295.999,316.032,278.09,298.123,255.999,298.123z"/>
<path style="fill:#17FFE9;" d="M215.999,338.123c0,22.091,17.909,40,40,40v-80C233.907,298.123,215.999,316.032,215.999,338.123z"/>
<path d="M57.499,200.013c4.143,0,7.5-3.357,7.5-7.5V186c0-28.948,23.552-52.5,52.5-52.5h277c28.948,0,52.5,23.552,52.5,52.5v6.513  c0,4.143,3.357,7.5,7.5,7.5s7.5-3.357,7.5-7.5V186c0-37.22-30.28-67.5-67.5-67.5h-71V116c0-20.678-16.822-37.5-37.5-37.5  c4.699-6.272,7.5-14.064,7.5-22.5c0-20.678-16.822-37.5-37.5-37.5s-37.5,16.822-37.5,37.5c0,8.436,2.801,16.228,7.52,22.5  c-20.698,0-37.52,16.822-37.52,37.5v2.5h-71c-37.22,0-67.5,30.28-67.5,67.5v6.513C49.999,196.656,53.356,200.013,57.499,200.013z   M233.499,56.001c0-12.406,10.094-22.5,22.5-22.5c12.406,0,22.5,10.094,22.5,22.5s-10.094,22.5-22.5,22.5  C243.592,78.501,233.499,68.407,233.499,56.001z M203.499,116.001c0-12.406,10.094-22.5,22.5-22.5h60  c12.406,0,22.5,10.094,22.5,22.5v2.5h-105V116.001z"/>
<path d="M255.999,290.624c-26.191,0-47.5,21.309-47.5,47.5s21.309,47.5,47.5,47.5c26.191,0,47.5-21.309,47.5-47.5  S282.19,290.624,255.999,290.624z M255.999,370.624c-17.921,0-32.5-14.579-32.5-32.5s14.579-32.5,32.5-32.5s32.5,14.579,32.5,32.5  S273.919,370.624,255.999,370.624z"/>
<path d="M508.773,189.837c-2.492-1.729-5.782-1.785-8.335-0.143l-84.25,54.245c-2.144,1.38-3.439,3.756-3.439,6.306V276  c0,17.921-14.579,32.5-32.5,32.5s-32.5-14.579-32.5-32.5v-25.755c0-1.989-0.79-3.896-2.197-5.304l-84.25-84.245  c-2.928-2.928-7.678-2.928-10.605,0l-84.25,84.245c-1.407,1.407-2.197,3.314-2.197,5.304V276c0,17.921-14.579,32.5-32.5,32.5  s-32.5-14.579-32.5-32.5v-25.755c0-2.55-1.296-4.926-3.439-6.306l-84.25-54.245c-2.551-1.644-5.842-1.586-8.335,0.143  s-3.699,4.791-3.055,7.756L50,426.806V486c0,4.143,3.357,7.5,7.5,7.5h397c4.143,0,7.5-3.357,7.5-7.5v-59.194l49.829-229.213  C512.472,194.628,511.266,191.567,508.773,189.837z M448.454,418.501H117.499c-4.143,0-7.5,3.357-7.5,7.5s3.357,7.5,7.5,7.5h329.5  v45h-382v-45h22.5c4.143,0,7.5-3.357,7.5-7.5s-3.357-7.5-7.5-7.5H63.543L18.677,212.119l65.571,42.218v21.664  c0,26.191,21.309,47.5,47.5,47.5s47.5-21.309,47.5-47.5v-22.648l76.75-76.745l76.75,76.745v22.648c0,26.191,21.309,47.5,47.5,47.5  s47.5-21.309,47.5-47.5v-21.664l65.571-42.218L448.454,418.501z"/>
<circle cx="255.998" cy="456" r="7.5"/>
<circle cx="186.748" cy="456" r="7.5"/>
<circle cx="117.498" cy="456" r="7.5"/>
<circle cx="394.498" cy="456" r="7.5"/>
<circle cx="325.248" cy="456" r="7.5"/>
<g>
</g>
<g>
</g>
<g>
</g>
<g>
</g>
<g>
</g>
<g>
</g>
<g>
</g>
<g>
</g>
<g>
</g>
<g>
</g>
<g>
</g>
<g>
</g>
<g>
</g>
<g>
</g>
<g>
</g>
</svg>
