<?xml version="1.0" encoding="iso-8859-1"?>
<!-- Generator: Adobe Illustrator 19.0.0, SVG Export Plug-In . SVG Version: 6.00 Build 0)  -->
<svg xmlns="http://www.w3.org/2000/svg" xmlns:xlink="http://www.w3.org/1999/xlink" version="1.1" id="Capa_1" x="0px" y="0px" viewBox="0 0 512 512" style="enable-background:new 0 0 512 512;" xml:space="preserve">
<path style="fill:#FF0F47;" d="M369.5,7.5c-20.893,0-39.783,8.55-53.383,22.334L256,90.748V187.5l113.5-30c41.421,0,75-33.579,75-75  S410.921,7.5,369.5,7.5z M369.5,117.5h-83.702l58.792-59.572c6.635-6.725,15.481-10.428,24.91-10.428c19.299,0,35,15.701,35,35  S388.799,117.5,369.5,117.5z"/>
<g>
	<path style="fill:#FF415D;" d="M195.883,29.834C182.283,16.05,163.393,7.5,142.5,7.5c-41.421,0-75,33.579-75,75s33.579,75,75,75   l113.5,30V90.748L195.883,29.834z M142.5,117.5c-19.299,0-35-15.701-35-35s15.701-35,35-35c9.428,0,18.274,3.703,24.91,10.428   l58.792,59.572H142.5z"/>
	<path style="fill:#FF415D;" d="M256,77.5l-33.333,105H306v-55C306,99.886,283.614,77.5,256,77.5z"/>
</g>
<path style="fill:#FF7472;" d="M206,127.5v55h50v-105C228.386,77.5,206,99.886,206,127.5z"/>
<polygon style="fill:#FFA688;" points="67.5,217.5 67.5,277.5 414.5,504.5 444.5,504.5 444.5,217.5 "/>
<g>
	<rect x="67.5" y="277.5" style="fill:#FFD89D;" width="347" height="227"/>
	<polygon style="fill:#FFD89D;" points="429.5,157.5 399.5,202.5 429.5,247.5 459.5,247.5 459.5,157.5  "/>
</g>
<polygon style="fill:#FFEBCE;" points="301,157.5 256,186 211,157.5 52.5,157.5 52.5,247.5 429.5,247.5 429.5,157.5 "/>
<polygon style="fill:#FF0F47;" points="256,157.5 233.778,236.75 256,361 306,391 306,157.5 "/>
<polygon style="fill:#FF415D;" points="206,157.5 206,391 256,361 256,157.5 "/>
<path d="M459.5,150h-42.654C438.083,135.059,452,110.381,452,82.5C452,37.01,414.99,0,369.5,0c-22.236,0-43.091,8.725-58.721,24.565  l-45.576,46.18C262.205,70.261,259.133,70,256,70s-6.205,0.261-9.203,0.746l-45.575-46.179C185.591,8.725,164.736,0,142.5,0  C97.009,0,60,37.01,60,82.5c0,27.881,13.916,52.559,35.153,67.5H52.5c-4.142,0-7.5,3.357-7.5,7.5v90c0,4.143,3.358,7.5,7.5,7.5H60  v249.5c0,4.143,3.358,7.5,7.5,7.5h377c4.143,0,7.5-3.357,7.5-7.5v-227c0-4.143-3.357-7.5-7.5-7.5s-7.5,3.357-7.5,7.5V497H75V255  h123.5v136c0,2.702,1.454,5.195,3.805,6.526c2.352,1.331,5.238,1.296,7.554-0.095L256,369.746l46.142,27.686  c1.187,0.712,2.521,1.068,3.858,1.068c1.273,0,2.548-0.324,3.695-0.974c2.352-1.331,3.805-3.824,3.805-6.526V255h146  c4.143,0,7.5-3.357,7.5-7.5v-90C467,153.357,463.643,150,459.5,150z M198.5,240H60v-75h138.5V240z M201.232,110H142.5  c-15.164,0-27.5-12.337-27.5-27.5S127.336,55,142.5,55c7.406,0,14.356,2.91,19.572,8.196l41.093,41.637  C202.44,106.516,201.796,108.24,201.232,110z M172.749,52.66C164.693,44.496,153.951,40,142.5,40C119.065,40,100,59.065,100,82.5  s19.065,42.5,42.5,42.5h56.063c-0.036,0.83-0.063,1.662-0.063,2.5V150h-56C105.28,150,75,119.72,75,82.5S105.28,15,142.5,15  c18.191,0,35.254,7.139,48.045,20.103l40.215,40.748c-7.641,3.749-14.328,9.147-19.607,15.724L172.749,52.66z M298.5,377.754  l-38.642-23.186c-1.188-0.712-2.522-1.068-3.858-1.068c-1.335,0-2.671,0.356-3.859,1.068L213.5,377.754V165h85V377.754z M298.5,150  h-85v-22.5c0-23.435,19.065-42.5,42.5-42.5s42.5,19.065,42.5,42.5V150z M310.768,110c-0.564-1.76-1.208-3.484-1.932-5.166  l41.093-41.638C355.144,57.91,362.094,55,369.5,55c15.163,0,27.5,12.337,27.5,27.5S384.663,110,369.5,110H310.768z M313.437,125  H369.5c23.435,0,42.5-19.065,42.5-42.5S392.935,40,369.5,40c-11.45,0-22.192,4.496-30.248,12.659l-38.405,38.914  c-5.279-6.577-11.966-11.974-19.607-15.724l40.215-40.748C334.246,22.139,351.309,15,369.5,15c37.22,0,67.5,30.28,67.5,67.5  S406.72,150,369.5,150h-56v-22.5C313.5,126.662,313.472,125.83,313.437,125z M452,240H313.5v-75H452V240z"/>
<g>
</g>
<g>
</g>
<g>
</g>
<g>
</g>
<g>
</g>
<g>
</g>
<g>
</g>
<g>
</g>
<g>
</g>
<g>
</g>
<g>
</g>
<g>
</g>
<g>
</g>
<g>
</g>
<g>
</g>
</svg>
